# xmcd
#
# Track frame offsets:
#	150
#	18471
#	34257
#	50261
#	66017
#	83486
#	100603
#	114982
#	130434
#	147730
#	165552
#	179891
#	195639
#	213184
#	229954
#	248446
#	263252
#	284725
#	302357
#	325930
#
# Disc length: 4612
#
# Revision: 1
# Processed by: cddbd v1.5.2PL0 Copyright (c) Steve Scherf et al.
# Submitted via: kJams Lite (development) 1.0patch52.50
#
DISCID=16120214
DTITLE=Various Artist - 100 Hits presents 80s Karaoke disc 5
DYEAR=1999
DGENRE=Pop
TTITLE0=Wham! - I'm Your Man
TTITLE1=Eurythmics - Sweet Dreams (Are Made Of This)
TTITLE2=Duran Duran - Hungry Like The Wolf
TTITLE3=A–Ha - The Sun Always Shines on T.V_
TTITLE4=Huey Lewis And The News - The Power Of Love
TTITLE5=Go West - We Close Our Eyes
TTITLE6=Elton John - I'm Still Standing
TTITLE7=Frankie Goes To Hollywood - Two Tribes
TTITLE8=Fairground Attraction - Perfect
TTITLE9=Madonna - Material Girl
TTITLE10=George Michael - Faith
TTITLE11=King - Love and Pride
TTITLE12=Billy Joel - Tell Her About It
TTITLE13=Belinda Carlisle - Circle In The Sand
TTITLE14=Pointer Sisters, The - Jump (For My Love)
TTITLE15=Prince and The Revolution - Raspberry Beret
TTITLE16=Phil Bailey and Phil Collins - Easy Lover
TTITLE17=Aswad - Don't Turn Around
TTITLE18=Tracy Chapman - Fast Car
TTITLE19=Peter Cetera - Glory Of Love
EXTD=
EXTT0=
EXTT1=
EXTT2=
EXTT3=
EXTT4=
EXTT5=
EXTT6=
EXTT7=
EXTT8=
EXTT9=
EXTT10=
EXTT11=
EXTT12=
EXTT13=
EXTT14=
EXTT15=
EXTT16=
EXTT17=
EXTT18=
EXTT19=
PLAYORDER=
